<svg xmlns="http://www.w3.org/2000/svg" xmlns:xlink="http://www.w3.org/1999/xlink" viewBox="0 0 148.96 148.96"><defs><style>.cls-1{isolation:isolate;}.cls-2{fill:url(#linear-gradient);}.cls-3{fill:url(#radial-gradient);}.cls-4{fill:url(#linear-gradient-2);}.cls-5{fill:url(#radial-gradient-2);}.cls-6{fill:url(#linear-gradient-3);}.cls-7{fill:url(#radial-gradient-3);}.cls-8{fill:url(#radial-gradient-4);}.cls-9{fill:url(#radial-gradient-5);}.cls-10{fill:url(#radial-gradient-6);}.cls-11{fill:url(#radial-gradient-7);}.cls-12{fill:url(#radial-gradient-8);}.cls-13{fill:url(#radial-gradient-9);}.cls-14{fill:url(#radial-gradient-10);}.cls-15{fill:url(#radial-gradient-11);}.cls-16{fill:url(#radial-gradient-12);}.cls-17{fill:url(#radial-gradient-13);}.cls-18{fill:url(#radial-gradient-14);}.cls-19{fill:url(#radial-gradient-15);}.cls-20{fill:url(#radial-gradient-16);}.cls-21{fill:url(#radial-gradient-17);}.cls-22{fill:url(#radial-gradient-18);}.cls-23{fill:url(#radial-gradient-19);}.cls-24{fill:url(#radial-gradient-20);}.cls-25{fill:url(#radial-gradient-21);}.cls-26{fill:url(#radial-gradient-22);}.cls-27{mix-blend-mode:color-burn;opacity:0.3;fill:url(#radial-gradient-23);}.cls-28{fill:#590b42;}.cls-29{fill:#f4b41c;}.cls-30{mix-blend-mode:multiply;opacity:0.6;fill:url(#radial-gradient-24);}.cls-31{fill:url(#linear-gradient-4);}.cls-32{fill:url(#radial-gradient-25);}</style><linearGradient id="linear-gradient" x1="125.13" y1="23.83" x2="18.13" y2="130.83" gradientUnits="userSpaceOnUse"><stop offset="0" stop-color="#f9df7b"/><stop offset="0.2" stop-color="#b57e10"/><stop offset="0.26" stop-color="#b78114"/><stop offset="0.32" stop-color="#bf8c1f"/><stop offset="0.38" stop-color="#cb9e33"/><stop offset="0.44" stop-color="#ddb64e"/><stop offset="0.49" stop-color="#f3d671"/><stop offset="0.51" stop-color="#f9df7b"/><stop offset="0.52" stop-color="#fff3a6"/><stop offset="0.59" stop-color="#f9df7b"/><stop offset="0.84" stop-color="#b57e10"/><stop offset="0.95" stop-color="#e5c35c"/><stop offset="1" stop-color="#f9df7b"/></linearGradient><radialGradient id="radial-gradient" cx="74.48" cy="74.48" r="73.33" gradientUnits="userSpaceOnUse"><stop offset="0" stop-color="#5c573a"/><stop offset="0.85" stop-color="#580043"/><stop offset="1" stop-color="#300025"/></radialGradient><linearGradient id="linear-gradient-2" x1="32.52" y1="32.52" x2="115.26" y2="115.26" gradientTransform="translate(74.48 -30.85) rotate(45)" xlink:href="#linear-gradient"/><radialGradient id="radial-gradient-2" cx="74.48" cy="74.48" r="67.75" gradientUnits="userSpaceOnUse"><stop offset="0" stop-color="#5c573a"/><stop offset="0.85" stop-color="#580043"/><stop offset="1" stop-color="#5c573a"/></radialGradient><linearGradient id="linear-gradient-3" x1="17.1" y1="74.48" x2="131.86" y2="74.48" xlink:href="#linear-gradient"/><radialGradient id="radial-gradient-3" cx="74.52" cy="74.05" r="72.78" gradientUnits="userSpaceOnUse"><stop offset="0" stop-color="#f5d919"/><stop offset="0.85" stop-color="#f16922"/><stop offset="1" stop-color="#f5d919"/></radialGradient><radialGradient id="radial-gradient-4" cx="74.52" cy="74.05" r="72.78" xlink:href="#radial-gradient-3"/><radialGradient id="radial-gradient-5" cx="74.48" cy="74.05" r="72.9" xlink:href="#radial-gradient-3"/><radialGradient id="radial-gradient-6" cx="74.48" cy="74.05" r="72.8" xlink:href="#radial-gradient-3"/><radialGradient id="radial-gradient-7" cx="-1154.94" cy="-1666.35" r="3.5" gradientTransform="matrix(-0.98, -0.19, 0.19, -0.98, -749.28, -1716.87)" xlink:href="#radial-gradient-3"/><radialGradient id="radial-gradient-8" cx="-812.33" cy="-1863.68" r="3.5" gradientTransform="translate(-1074.85 -1525.94) rotate(168.69)" xlink:href="#radial-gradient-3"/><radialGradient id="radial-gradient-9" cx="-554.24" cy="107.86" r="3.5" gradientTransform="matrix(0.83, -0.56, 0.56, 0.83, 437.28, -381.3)" xlink:href="#radial-gradient-3"/><radialGradient id="radial-gradient-10" cx="-936.05" cy="5.49" r="3.5" gradientTransform="matrix(0.55, -0.83, 0.83, 0.55, 532.2, -746.31)" xlink:href="#radial-gradient-3"/><radialGradient id="radial-gradient-11" cx="-1249.97" cy="-236.07" r="3.5" gradientTransform="matrix(0.19, -0.98, 0.98, 0.19, 481.17, -1120.13)" xlink:href="#radial-gradient-3"/><radialGradient id="radial-gradient-12" cx="-1447.49" cy="-578.64" r="3.5" gradientTransform="translate(290.24 -1445.69) rotate(-101.31)" xlink:href="#radial-gradient-3"/><radialGradient id="radial-gradient-13" cx="-1498.43" cy="-970.72" r="3.5" gradientTransform="matrix(-0.56, -0.83, 0.83, -0.56, -10.45, -1672.98)" xlink:href="#radial-gradient-3"/><radialGradient id="radial-gradient-14" cx="-1395.61" cy="-1352.37" r="3.5" gradientTransform="matrix(-0.83, -0.55, 0.55, -0.83, -375.46, -1767.9)" xlink:href="#radial-gradient-3"/><radialGradient id="radial-gradient-15" cx="-419.85" cy="-1914.92" r="3.5" gradientTransform="matrix(-0.83, 0.56, -0.56, -0.83, -1302.14, -1225.25)" xlink:href="#radial-gradient-3"/><radialGradient id="radial-gradient-16" cx="-37.76" cy="-1811.94" r="3.5" gradientTransform="matrix(-0.55, 0.83, -0.83, -0.55, -1397.06, -860.23)" xlink:href="#radial-gradient-3"/><radialGradient id="radial-gradient-17" cx="275.33" cy="-1571.32" r="3.5" gradientTransform="matrix(-0.19, 0.98, -0.98, -0.19, -1346.03, -486.42)" xlink:href="#radial-gradient-3"/><radialGradient id="radial-gradient-18" cx="472.7" cy="-1228.52" r="3.5" gradientTransform="translate(-1155.09 -160.85) rotate(78.69)" xlink:href="#radial-gradient-3"/><radialGradient id="radial-gradient-19" cx="524.35" cy="-836.34" r="3.5" gradientTransform="matrix(0.56, 0.83, -0.83, 0.56, -854.4, 66.44)" xlink:href="#radial-gradient-3"/><radialGradient id="radial-gradient-20" cx="421.81" cy="-454.09" r="3.5" gradientTransform="matrix(0.83, 0.55, -0.55, 0.83, -489.39, 161.36)" xlink:href="#radial-gradient-3"/><radialGradient id="radial-gradient-21" cx="180.3" cy="-141.05" r="3.5" gradientTransform="matrix(0.98, 0.19, -0.19, 0.98, -115.57, 110.33)" xlink:href="#radial-gradient-3"/><radialGradient id="radial-gradient-22" cx="-162.47" cy="56.51" r="3.5" gradientTransform="translate(210 -80.61) rotate(-11.31)" xlink:href="#radial-gradient-3"/><radialGradient id="radial-gradient-23" cx="74.48" cy="74.48" r="65.18" gradientTransform="translate(127.4 -16.59) rotate(75.16)" gradientUnits="userSpaceOnUse"><stop offset="0.92" stop-color="#fff"/><stop offset="0.92" stop-color="#fdfdfc"/><stop offset="0.92" stop-color="#f5f5f3"/><stop offset="0.92" stop-color="#e8e8e4"/><stop offset="0.92" stop-color="#d6d5ce"/><stop offset="0.92" stop-color="#bfbdb1"/><stop offset="0.92" stop-color="#a29f8f"/><stop offset="0.92" stop-color="#807d66"/><stop offset="0.92" stop-color="#5c573a"/><stop offset="1" stop-color="#4d4d4d"/></radialGradient><radialGradient id="radial-gradient-24" cx="73.48" cy="76.25" r="7.52" gradientUnits="userSpaceOnUse"><stop offset="0.59" stop-color="#5b3a3d"/><stop offset="0.59" stop-color="#5f3e41"/><stop offset="0.74" stop-color="#a39092"/><stop offset="0.86" stop-color="#d4cccd"/><stop offset="0.95" stop-color="#f3f1f1"/><stop offset="1" stop-color="#fff"/></radialGradient><linearGradient id="linear-gradient-4" x1="71.24" y1="71.23" x2="78.82" y2="78.82" xlink:href="#linear-gradient"/><radialGradient id="radial-gradient-25" cx="74.48" cy="74.48" r="4" xlink:href="#radial-gradient"/></defs><g class="cls-1"><g id="Layer_2" data-name="Layer 2"><g id="Layer_1-2" data-name="Layer 1"><path class="cls-2" d="M149,74.48A74.48,74.48,0,1,1,70.91.08C72.09,0,73.29,0,74.48,0s2.38,0,3.57.08A74.49,74.49,0,0,1,149,74.48Z"/><circle class="cls-3" cx="74.48" cy="74.48" r="73.33"/><circle class="cls-4" cx="74.48" cy="74.48" r="63.23" transform="translate(-30.85 74.48) rotate(-45)"/><path class="cls-5" d="M118.34,118.34a61.82,61.82,0,0,0,13.21-19.52L74.48,74.48l24.34,57.07A62,62,0,0,0,118.34,118.34Zm-87.72,0a62,62,0,0,0,19.52,13.21L74.48,74.48,17.41,98.82A61.82,61.82,0,0,0,30.62,118.34Zm0-87.72A61.7,61.7,0,0,0,17.41,50.14L74.48,74.48,50.14,17.41A61.7,61.7,0,0,0,30.62,30.62Zm87.72,0A61.7,61.7,0,0,0,98.82,17.41L74.48,74.48l57.07-24.34A61.7,61.7,0,0,0,118.34,30.62Z"/><path class="cls-6" d="M98.7,131.85,74.48,75.08,50.26,131.85l-.21-.09A62.42,62.42,0,0,1,17.2,98.91l-.1-.22L73.88,74.48,17.1,50.26l.1-.21A62.39,62.39,0,0,1,50.05,17.19l.21-.09L74.48,73.88,98.7,17.1l.21.09a62.39,62.39,0,0,1,32.85,32.86l.1.21-.22.09L75.08,74.48l56.78,24.21-.1.22a62.42,62.42,0,0,1-32.85,32.85ZM74.92,74.92l24,56.32a62,62,0,0,0,32.3-32.3Zm-57.2,24A62,62,0,0,0,50,131.24L74,74.92Zm0-48.93L74,74,50,17.72A61.9,61.9,0,0,0,17.72,50Zm57.2,24,56.32-24a61.9,61.9,0,0,0-32.3-32.29Z"/><path class="cls-7" d="M130.35,101.45a62.14,62.14,0,0,0,0-53.95q.63,1.3,1.2,2.64L74.48,74.48l57.07,24.34C131.17,99.7,130.77,100.58,130.35,101.45Z"/><path class="cls-8" d="M18.61,47.5a62.14,62.14,0,0,0,0,54c-.42-.87-.82-1.75-1.2-2.63L74.48,74.48,17.41,50.14Q18,48.81,18.61,47.5Z"/><path class="cls-9" d="M101.45,18.6a62.21,62.21,0,0,0-53.94,0c.87-.42,1.75-.81,2.63-1.19L74.48,74.48,98.82,17.41C99.7,17.79,100.58,18.18,101.45,18.6Z"/><path class="cls-10" d="M98.82,131.55,74.48,74.48,50.14,131.55c-.89-.38-1.76-.78-2.63-1.2a62.12,62.12,0,0,0,53.94,0C100.58,130.77,99.7,131.17,98.82,131.55Z"/><path class="cls-11" d="M59,141a2.29,2.29,0,1,1,1.81,2.7A2.31,2.31,0,0,1,59,141Z"/><path class="cls-12" d="M85.62,141.87a2.29,2.29,0,1,1,2.7,1.8A2.29,2.29,0,0,1,85.62,141.87Z"/><path class="cls-13" d="M38.4,16.48a2.29,2.29,0,1,1-3.18-.63A2.29,2.29,0,0,1,38.4,16.48Z"/><path class="cls-14" d="M19,34.7a2.29,2.29,0,1,1-3.18.64A2.29,2.29,0,0,1,19,34.7Z"/><path class="cls-15" d="M8,59a2.29,2.29,0,1,1-2.7,1.8A2.28,2.28,0,0,1,8,59Z"/><path class="cls-16" d="M7.09,85.61a2.3,2.3,0,1,1-1.8,2.7A2.31,2.31,0,0,1,7.09,85.61Z"/><path class="cls-17" d="M16.48,110.56a2.3,2.3,0,1,1-.63,3.18A2.29,2.29,0,0,1,16.48,110.56Z"/><path class="cls-18" d="M34.7,130a2.3,2.3,0,1,1,.64,3.19A2.3,2.3,0,0,1,34.7,130Z"/><path class="cls-19" d="M110.56,132.48a2.3,2.3,0,1,1,3.18.63A2.3,2.3,0,0,1,110.56,132.48Z"/><path class="cls-20" d="M130,114.25a2.29,2.29,0,1,1,3.18-.63A2.29,2.29,0,0,1,130,114.25Z"/><path class="cls-21" d="M141,90a2.3,2.3,0,1,1,2.7-1.81A2.3,2.3,0,0,1,141,90Z"/><path class="cls-22" d="M141.87,63.34a2.29,2.29,0,1,1,1.8-2.7A2.3,2.3,0,0,1,141.87,63.34Z"/><path class="cls-23" d="M132.48,38.4a2.3,2.3,0,1,1,.63-3.19A2.31,2.31,0,0,1,132.48,38.4Z"/><path class="cls-24" d="M114.26,19a2.3,2.3,0,1,1-3.82-2.55A2.3,2.3,0,0,1,114.26,19Z"/><path class="cls-25" d="M90,8a2.29,2.29,0,1,1-1.81-2.7A2.3,2.3,0,0,1,90,8Z"/><path class="cls-26" d="M63.34,7.09a2.29,2.29,0,1,1-2.7-1.8A2.3,2.3,0,0,1,63.34,7.09Z"/><circle class="cls-27" cx="74.48" cy="74.48" r="62.03" transform="matrix(0.26, -0.97, 0.97, 0.26, -16.59, 127.4)"/><path class="cls-28" d="M71.21,40.73H77v1.64H72.47v1.08H71.21Z"/><path class="cls-28" d="M76.77,38.62a2.38,2.38,0,0,1-1,.91,3.72,3.72,0,0,1-1.62.33,3.66,3.66,0,0,1-1.62-.33,2.33,2.33,0,0,1-1-.91,2.6,2.6,0,0,1,0-2.64,2.33,2.33,0,0,1,1-.91,3.66,3.66,0,0,1,1.62-.33,3.72,3.72,0,0,1,1.62.33,2.38,2.38,0,0,1,1,.91,2.6,2.6,0,0,1,0,2.64Zm-1.39-2a2.45,2.45,0,0,0-1.27-.25,2.49,2.49,0,0,0-1.28.25.74.74,0,0,0,0,1.32,2.49,2.49,0,0,0,1.28.25A2.45,2.45,0,0,0,75.38,38a.74.74,0,0,0,0-1.32Z"/><path class="cls-28" d="M76.77,32.94a2.38,2.38,0,0,1-1,.91,3.72,3.72,0,0,1-1.62.33,3.66,3.66,0,0,1-1.62-.33,2.33,2.33,0,0,1-1-.91,2.6,2.6,0,0,1,0-2.64,2.33,2.33,0,0,1,1-.91,3.66,3.66,0,0,1,1.62-.33,3.72,3.72,0,0,1,1.62.33,2.38,2.38,0,0,1,1,.91,2.6,2.6,0,0,1,0,2.64Zm-1.39-2a2.45,2.45,0,0,0-1.27-.25,2.49,2.49,0,0,0-1.28.25.74.74,0,0,0,0,1.32,2.49,2.49,0,0,0,1.28.25,2.45,2.45,0,0,0,1.27-.25.74.74,0,0,0,0-1.32Z"/><path class="cls-28" d="M76.44,24.08a2.48,2.48,0,0,1,.65,1.43H78v1h-.89a5.5,5.5,0,0,1-.21,1.17,3.85,3.85,0,0,1-.42.93l-1.21-.54a3.31,3.31,0,0,0,.41-.91,3.27,3.27,0,0,0,.16-1c0-.63-.16-.94-.47-.94a.39.39,0,0,0-.37.26,5,5,0,0,0-.26.87,7.67,7.67,0,0,1-.3,1.1,1.85,1.85,0,0,1-.52.75,1.39,1.39,0,0,1-1,.32A1.68,1.68,0,0,1,71.75,28a2.47,2.47,0,0,1-.63-1.48h-.91v-1h.9a4.56,4.56,0,0,1,.16-.91,3.36,3.36,0,0,1,.32-.77l1.22.5a3.49,3.49,0,0,0-.44,1.61,1.34,1.34,0,0,0,.14.72.43.43,0,0,0,.38.22.39.39,0,0,0,.35-.26,6.94,6.94,0,0,0,.24-.86,7.32,7.32,0,0,1,.3-1.1,1.93,1.93,0,0,1,.51-.75,1.36,1.36,0,0,1,1-.32A1.62,1.62,0,0,1,76.44,24.08Z"/><path class="cls-28" d="M75.12,108a1.66,1.66,0,0,1-1.33.58,1.81,1.81,0,0,1-1-.28,1.88,1.88,0,0,1-.72-.84,3.28,3.28,0,0,1-.27-1.41,5,5,0,0,1,.15-1.21,3.47,3.47,0,0,1,.42-1l1.24.58a2.71,2.71,0,0,0-.36.77,3,3,0,0,0-.12.84,1.22,1.22,0,0,0,.16.68.5.5,0,0,0,.45.25.48.48,0,0,0,.44-.25,1.82,1.82,0,0,0,.15-.88v-1.57l3.39.29v3.7H76.46v-2.34l-.85-.08v.39A2.76,2.76,0,0,1,75.12,108Z"/><path class="cls-28" d="M72.16,110.33a2.41,2.41,0,0,1,1-.91,3.66,3.66,0,0,1,1.62-.32,3.72,3.72,0,0,1,1.62.32,2.44,2.44,0,0,1,1,.91,2.62,2.62,0,0,1,0,2.65,2.51,2.51,0,0,1-1,.91,3.87,3.87,0,0,1-1.62.32,3.8,3.8,0,0,1-1.62-.32,2.48,2.48,0,0,1-1-.91,2.68,2.68,0,0,1,0-2.65Zm1.39,2a2.61,2.61,0,0,0,1.28.24,2.57,2.57,0,0,0,1.27-.24.75.75,0,0,0,0-1.33,2.57,2.57,0,0,0-1.27-.24,2.61,2.61,0,0,0-1.28.24.77.77,0,0,0-.4.67A.77.77,0,0,0,73.55,112.32Z"/><path class="cls-28" d="M72.16,116a2.41,2.41,0,0,1,1-.91,3.8,3.8,0,0,1,1.62-.32,3.87,3.87,0,0,1,1.62.32,2.44,2.44,0,0,1,1,.91,2.62,2.62,0,0,1,0,2.65,2.51,2.51,0,0,1-1,.91,3.87,3.87,0,0,1-1.62.32,3.8,3.8,0,0,1-1.62-.32,2.48,2.48,0,0,1-1-.91,2.68,2.68,0,0,1,0-2.65Zm1.39,2a2.61,2.61,0,0,0,1.28.24A2.57,2.57,0,0,0,76.1,118a.73.73,0,0,0,.4-.66.75.75,0,0,0-.4-.67,2.57,2.57,0,0,0-1.27-.24,2.61,2.61,0,0,0-1.28.24.77.77,0,0,0-.4.67A.75.75,0,0,0,73.55,118Z"/><path class="cls-28" d="M72.49,124.87a2.44,2.44,0,0,1-.64-1.43h-.92v-1h.89a4.48,4.48,0,0,1,.21-1.18,3.15,3.15,0,0,1,.42-.92l1.21.54a3.74,3.74,0,0,0-.42.9,3.64,3.64,0,0,0-.15,1c0,.63.15,1,.47,1a.4.4,0,0,0,.37-.27,5.18,5.18,0,0,0,.25-.87,9,9,0,0,1,.3-1.09,1.88,1.88,0,0,1,.52-.76,1.4,1.4,0,0,1,1-.31,1.68,1.68,0,0,1,1.23.51,2.49,2.49,0,0,1,.62,1.49h.92v1h-.9a4.44,4.44,0,0,1-.17.91,3.44,3.44,0,0,1-.32.78l-1.22-.51a3.36,3.36,0,0,0,.45-1.61,1.32,1.32,0,0,0-.15-.71.43.43,0,0,0-.37-.23.37.37,0,0,0-.35.27,4.43,4.43,0,0,0-.24.85,8.14,8.14,0,0,1-.31,1.1,1.83,1.83,0,0,1-.51.76,1.37,1.37,0,0,1-1,.32A1.65,1.65,0,0,1,72.49,124.87Z"/><path class="cls-28" d="M108.18,74.3a1.54,1.54,0,0,1,.38,1.08,1.7,1.7,0,0,1-.28,1,1.93,1.93,0,0,1-.85.7,3.28,3.28,0,0,1-1.41.27,5,5,0,0,1-1.21-.16,3.39,3.39,0,0,1-1-.43l.6-1.23a2.59,2.59,0,0,0,.77.36A2.72,2.72,0,0,0,106,76a1.28,1.28,0,0,0,.67-.15.51.51,0,0,0,.25-.45c0-.38-.29-.57-.88-.57h-.69v-1l1-1.11h-2.29V71.37l4.19,0v1l-1.21,1.28A1.93,1.93,0,0,1,108.18,74.3Z"/><path class="cls-28" d="M110.32,77a2.49,2.49,0,0,1-.9-1,3.73,3.73,0,0,1-.32-1.63,3.58,3.58,0,0,1,.34-1.62,2.36,2.36,0,0,1,.91-1,2.47,2.47,0,0,1,1.33-.35,2.37,2.37,0,0,1,2.22,1.41,3.8,3.8,0,0,1,.32,1.62,3.87,3.87,0,0,1-.34,1.62,2.44,2.44,0,0,1-.91,1,2.62,2.62,0,0,1-2.65,0Zm2-1.38a2.64,2.64,0,0,0,.25-1.27,2.57,2.57,0,0,0-.24-1.27.74.74,0,0,0-.66-.41.76.76,0,0,0-.67.4,2.55,2.55,0,0,0-.25,1.27,2.61,2.61,0,0,0,.24,1.28.73.73,0,0,0,.66.4A.76.76,0,0,0,112.32,75.58Z"/><path class="cls-28" d="M116,77a2.46,2.46,0,0,1-.9-1,3.66,3.66,0,0,1-.32-1.62,3.72,3.72,0,0,1,.34-1.62,2.36,2.36,0,0,1,.91-1,2.63,2.63,0,0,1,2.64,0,2.44,2.44,0,0,1,.91,1,4.17,4.17,0,0,1,0,3.25,2.36,2.36,0,0,1-2.23,1.38A2.48,2.48,0,0,1,116,77Zm2-1.38a2.67,2.67,0,0,0,.25-1.27,2.61,2.61,0,0,0-.24-1.28.75.75,0,0,0-1.33,0,3.41,3.41,0,0,0,0,2.54.75.75,0,0,0,.67.41A.75.75,0,0,0,118,75.61Z"/><path class="cls-28" d="M124.87,76.71a2.47,2.47,0,0,1-1.44.63v.92h-1v-.89a4.94,4.94,0,0,1-1.18-.22,3.15,3.15,0,0,1-.92-.42l.55-1.21a3.74,3.74,0,0,0,.9.42,3.27,3.27,0,0,0,1,.16c.63,0,1-.15,1-.47a.41.41,0,0,0-.27-.37,5.18,5.18,0,0,0-.87-.25,8.87,8.87,0,0,1-1.09-.31,1.85,1.85,0,0,1-.75-.52,1.41,1.41,0,0,1-.31-1A1.64,1.64,0,0,1,121,72a2.47,2.47,0,0,1,1.49-.62v-.91h1v.89a5.24,5.24,0,0,1,.91.17,3.64,3.64,0,0,1,.77.33l-.51,1.22a3.38,3.38,0,0,0-1.61-.46,1.43,1.43,0,0,0-.71.14.46.46,0,0,0-.23.38.38.38,0,0,0,.27.35,4.43,4.43,0,0,0,.85.24,8.59,8.59,0,0,1,1.1.31,1.85,1.85,0,0,1,.75.52,1.39,1.39,0,0,1,.32,1A1.69,1.69,0,0,1,124.87,76.71Z"/><path class="cls-28" d="M40.2,77.58v-1l2.07-4.77h1.79l-2,4.49h1.53v-.9H45v2.2Z"/><path class="cls-28" d="M38.64,72a2.39,2.39,0,0,1,.9,1,3.72,3.72,0,0,1,.32,1.62,3.66,3.66,0,0,1-.33,1.62,2.47,2.47,0,0,1-.92,1,2.56,2.56,0,0,1-1.33.35A2.42,2.42,0,0,1,36,77.31a2.38,2.38,0,0,1-.91-1,3.72,3.72,0,0,1-.31-1.62A3.66,3.66,0,0,1,35.08,73,2.38,2.38,0,0,1,36,72a2.65,2.65,0,0,1,2.65,0Zm-2,1.38a2.54,2.54,0,0,0-.26,1.27,2.61,2.61,0,0,0,.24,1.28.76.76,0,0,0,1.33,0,2.6,2.6,0,0,0,.25-1.28A2.57,2.57,0,0,0,38,73.39a.74.74,0,0,0-.66-.41A.75.75,0,0,0,36.65,73.38Z"/><path class="cls-28" d="M33,72a2.31,2.31,0,0,1,.9,1,3.72,3.72,0,0,1,.32,1.62,3.66,3.66,0,0,1-.33,1.62,2.38,2.38,0,0,1-2.25,1.39,2.37,2.37,0,0,1-2.22-1.41,3.87,3.87,0,0,1-.32-1.62A3.8,3.8,0,0,1,29.4,73a2.38,2.38,0,0,1,.91-1,2.55,2.55,0,0,1,1.32-.35A2.48,2.48,0,0,1,33,72Zm-2,1.37a3.38,3.38,0,0,0,0,2.55.75.75,0,0,0,1.33,0,2.55,2.55,0,0,0,.25-1.27,2.61,2.61,0,0,0-.24-1.28.73.73,0,0,0-.66-.4A.72.72,0,0,0,31,73.35Z"/><path class="cls-28" d="M24.1,72.26a2.44,2.44,0,0,1,1.43-.64V70.7h1v.89a4.93,4.93,0,0,1,1.18.21,3.43,3.43,0,0,1,.92.43l-.55,1.2a3.62,3.62,0,0,0-1.91-.58c-.63,0-.94.16-.95.47a.39.39,0,0,0,.27.37,5,5,0,0,0,.87.26,7.4,7.4,0,0,1,1.09.31,1.85,1.85,0,0,1,.75.52,1.4,1.4,0,0,1,.31,1A1.63,1.63,0,0,1,28,77a2.41,2.41,0,0,1-1.49.62v.91h-1v-.9a4.44,4.44,0,0,1-.91-.17,3.18,3.18,0,0,1-.77-.32l.51-1.22a3.36,3.36,0,0,0,1.61.45,1.24,1.24,0,0,0,.71-.14.43.43,0,0,0,.23-.37.37.37,0,0,0-.27-.35,4.83,4.83,0,0,0-.85-.25,7.21,7.21,0,0,1-1.1-.31,1.93,1.93,0,0,1-.75-.51,1.36,1.36,0,0,1-.31-1A1.59,1.59,0,0,1,24.1,72.26Z"/><path class="cls-29" d="M99.35,51l.92.92L97.1,55.18l-.73-.73.08-3a2.24,2.24,0,0,0-.07-.66,1,1,0,0,0-.23-.38.53.53,0,0,0-.45-.17.88.88,0,0,0-.5.28,1.3,1.3,0,0,0-.31.53,1.14,1.14,0,0,0,0,.61l-1.35.39a2.5,2.5,0,0,1,0-1.3,3.07,3.07,0,0,1,.79-1.26,2.94,2.94,0,0,1,1-.69,1.86,1.86,0,0,1,1-.13,1.6,1.6,0,0,1,.87.45,2.15,2.15,0,0,1,.49.77,3.56,3.56,0,0,1,.12,1.23l0,1.49Z"/><path class="cls-29" d="M101.3,50.57a2.43,2.43,0,0,1-1.38-.08,3.8,3.8,0,0,1-1.38-.91,3.6,3.6,0,0,1-.92-1.37,2.35,2.35,0,0,1-.11-1.38A2.65,2.65,0,0,1,99.37,45a2.35,2.35,0,0,1,1.38.09,3.57,3.57,0,0,1,1.38.9,3.71,3.71,0,0,1,.93,1.37,2.44,2.44,0,0,1,.1,1.38,2.5,2.5,0,0,1-.67,1.19A2.46,2.46,0,0,1,101.3,50.57Zm.41-2.39A3.52,3.52,0,0,0,99.9,46.4a.74.74,0,0,0-.75.18.77.77,0,0,0-.19.76,2.67,2.67,0,0,0,.74,1.07,2.45,2.45,0,0,0,1.08.72.75.75,0,0,0,.75-.19A.74.74,0,0,0,101.71,48.18Z"/><path class="cls-29" d="M105.29,46.53a2.43,2.43,0,0,1-1.38-.08,3.88,3.88,0,0,1-1.38-.91,3.8,3.8,0,0,1-.92-1.37,2.45,2.45,0,0,1-.11-1.38,2.65,2.65,0,0,1,1.86-1.88,2.43,2.43,0,0,1,1.38.08,4.17,4.17,0,0,1,2.31,2.28,2.44,2.44,0,0,1,.1,1.38,2.5,2.5,0,0,1-.67,1.19A2.54,2.54,0,0,1,105.29,46.53Zm.41-2.39a2.63,2.63,0,0,0-.73-1.07,2.78,2.78,0,0,0-1.08-.72.75.75,0,0,0-.93.95,2.53,2.53,0,0,0,.73,1.07,2.65,2.65,0,0,0,1.08.72.75.75,0,0,0,.75-.2A.72.72,0,0,0,105.7,44.14Z"/><path class="cls-29" d="M111.29,40a2.52,2.52,0,0,1-.55,1.47l.65.64-.7.71-.63-.62a5.73,5.73,0,0,1-1,.69,3.78,3.78,0,0,1-1,.36L107.66,42a3.44,3.44,0,0,0,.93-.35,3.37,3.37,0,0,0,.82-.61c.44-.45.55-.78.33-1a.39.39,0,0,0-.45-.07,4.57,4.57,0,0,0-.79.44,8.33,8.33,0,0,1-1,.56,1.74,1.74,0,0,1-.9.18,1.41,1.41,0,0,1-.9-.45,1.68,1.68,0,0,1-.51-1.23,2.49,2.49,0,0,1,.6-1.5l-.65-.64.7-.7.63.62a4.66,4.66,0,0,1,.76-.52,3.37,3.37,0,0,1,.77-.33l.52,1.22a3.32,3.32,0,0,0-1.45.83,1.34,1.34,0,0,0-.4.61.42.42,0,0,0,.11.42.37.37,0,0,0,.43.06,5,5,0,0,0,.78-.44,7.28,7.28,0,0,1,1-.57,2,2,0,0,1,.9-.18,1.44,1.44,0,0,1,.91.45A1.68,1.68,0,0,1,111.29,40Z"/><path class="cls-29" d="M51.8,98.75a1.79,1.79,0,0,1-1,.06,1.71,1.71,0,0,1-.87-.48,1.81,1.81,0,0,1-.53-1,2,2,0,0,1,.08-1.07,2.67,2.67,0,0,1,.64-1,2.6,2.6,0,0,1,1.91-.88,2.91,2.91,0,0,1,2,1,3.52,3.52,0,0,1,1,1.48,2.61,2.61,0,0,1,0,1.54,3.44,3.44,0,0,1-.87,1.41,4.06,4.06,0,0,1-.74.6,2.53,2.53,0,0,1-.76.32l-.42-1.25a1.83,1.83,0,0,0,1-.55,1.37,1.37,0,0,0,.07-2,2,2,0,0,1-.61,1.24A2.25,2.25,0,0,1,51.8,98.75Zm-1-2.14a.73.73,0,0,0,.23.54.71.71,0,0,0,.54.21.8.8,0,0,0,.54-.27.83.83,0,0,0,.27-.55.72.72,0,0,0-.23-.54.68.68,0,0,0-.53-.21.84.84,0,0,0-.56.28A.81.81,0,0,0,50.79,96.61Z"/><path class="cls-29" d="M47.64,98.36a2.35,2.35,0,0,1,1.38.09,3.57,3.57,0,0,1,1.38.9,3.66,3.66,0,0,1,.93,1.38,2.4,2.4,0,0,1,.1,1.37A2.64,2.64,0,0,1,49.57,104a2.44,2.44,0,0,1-1.38-.09,3.76,3.76,0,0,1-1.38-.9,3.63,3.63,0,0,1-.92-1.38,2.33,2.33,0,0,1-.11-1.37,2.69,2.69,0,0,1,1.86-1.89Zm-.41,2.39a2.61,2.61,0,0,0,.74,1.07,2.45,2.45,0,0,0,1.08.72.75.75,0,0,0,.75-.19.77.77,0,0,0,.18-.75,3.4,3.4,0,0,0-1.81-1.79.75.75,0,0,0-.94.94Z"/><path class="cls-29" d="M43.65,102.41a2.43,2.43,0,0,1,1.38.08,3.72,3.72,0,0,1,1.38.91,3.63,3.63,0,0,1,.93,1.37,2.36,2.36,0,0,1-.58,2.57,2.46,2.46,0,0,1-1.18.69,2.35,2.35,0,0,1-1.38-.09,3.57,3.57,0,0,1-1.38-.9,3.84,3.84,0,0,1-.93-1.37,2.44,2.44,0,0,1-.1-1.38,2.5,2.5,0,0,1,.67-1.19A2.38,2.38,0,0,1,43.65,102.41Zm-.41,2.38a3.46,3.46,0,0,0,1.82,1.79.72.72,0,0,0,.74-.18.77.77,0,0,0,.19-.76,2.57,2.57,0,0,0-.74-1.07,2.49,2.49,0,0,0-1.07-.72.75.75,0,0,0-.94.94Z"/><path class="cls-29" d="M37.66,108.94a2.43,2.43,0,0,1,.54-1.47l-.65-.65.7-.7.63.62a4.85,4.85,0,0,1,1-.69,3.59,3.59,0,0,1,.94-.36l.49,1.23a3.57,3.57,0,0,0-.93.36,3.43,3.43,0,0,0-.83.61c-.44.44-.55.78-.32,1a.38.38,0,0,0,.45.07,5.46,5.46,0,0,0,.79-.44,7.28,7.28,0,0,1,1-.57,1.84,1.84,0,0,1,.9-.17,1.44,1.44,0,0,1,.91.45,1.74,1.74,0,0,1,.51,1.23,2.44,2.44,0,0,1-.6,1.49l.65.64-.7.71-.64-.63a4.32,4.32,0,0,1-.76.53,3.37,3.37,0,0,1-.77.33l-.51-1.22a3.38,3.38,0,0,0,1.45-.83,1.23,1.23,0,0,0,.39-.61.42.42,0,0,0-.11-.42.37.37,0,0,0-.43-.06,4.57,4.57,0,0,0-.77.44,8,8,0,0,1-1,.57,1.84,1.84,0,0,1-.9.17,1.35,1.35,0,0,1-.9-.44A1.6,1.6,0,0,1,37.66,108.94Z"/><path class="cls-29" d="M97.74,99.7l-.61-.61-.78.79-1.14-1.13L96,98,93.83,95.8l.75-.76,4.4-.73,1.21,1.2-4.07.74.83.83.7-.7,1.1,1.09-.7.7.61.61Z"/><path class="cls-29" d="M98.24,101.43a2.35,2.35,0,0,1,.09-1.38,4.17,4.17,0,0,1,2.29-2.3,2.35,2.35,0,0,1,1.38-.09,2.44,2.44,0,0,1,1.19.68,2.4,2.4,0,0,1,.68,1.19,2.32,2.32,0,0,1-.09,1.37,3.72,3.72,0,0,1-.91,1.38,3.63,3.63,0,0,1-1.38.92,2.44,2.44,0,0,1-1.38.1,2.49,2.49,0,0,1-1.18-.68A2.38,2.38,0,0,1,98.24,101.43Zm2.39.42a2.63,2.63,0,0,0,1.07-.73,2.45,2.45,0,0,0,.72-1.08.73.73,0,0,0-.18-.75.74.74,0,0,0-.76-.18,3.42,3.42,0,0,0-1.79,1.8.76.76,0,0,0,.18.76A.78.78,0,0,0,100.63,101.85Z"/><path class="cls-29" d="M102.26,105.44a2.44,2.44,0,0,1,.09-1.38,4.19,4.19,0,0,1,2.29-2.29,2.36,2.36,0,0,1,1.38-.1,2.6,2.6,0,0,1,1.87,1.87,2.35,2.35,0,0,1-.09,1.38,4.19,4.19,0,0,1-2.29,2.29,2.43,2.43,0,0,1-1.38.1,2.49,2.49,0,0,1-1.18-.68A2.54,2.54,0,0,1,102.26,105.44Zm2.39.42a3.49,3.49,0,0,0,1.8-1.8.74.74,0,0,0-.19-.75.73.73,0,0,0-.75-.19,3.4,3.4,0,0,0-1.8,1.8.74.74,0,0,0,.19.76A.76.76,0,0,0,104.65,105.86Z"/><path class="cls-29" d="M108.77,111.46a2.45,2.45,0,0,1-1.47-.55l-.65.65-.7-.7.62-.63a5.22,5.22,0,0,1-.68-1,3.32,3.32,0,0,1-.36-1l1.24-.47a3.44,3.44,0,0,0,.35.93,3.34,3.34,0,0,0,.6.82c.45.45.78.56,1,.34a.4.4,0,0,0,.07-.46,5.17,5.17,0,0,0-.43-.79,8.3,8.3,0,0,1-.56-1,1.88,1.88,0,0,1-.17-.9,1.44,1.44,0,0,1,.45-.91,1.71,1.71,0,0,1,1.23-.5,2.47,2.47,0,0,1,1.5.6l.64-.64.7.7-.63.63a5.22,5.22,0,0,1,.53.76,3.57,3.57,0,0,1,.32.78l-1.22.51a3.45,3.45,0,0,0-.82-1.46,1.4,1.4,0,0,0-.61-.4.46.46,0,0,0-.43.11.4.4,0,0,0-.05.44,4.75,4.75,0,0,0,.43.77,8,8,0,0,1,.57,1,2,2,0,0,1,.17.9,1.44,1.44,0,0,1-.45.9A1.65,1.65,0,0,1,108.77,111.46Z"/><path class="cls-29" d="M50.54,50.53a1.44,1.44,0,0,1,.39-.7,1.51,1.51,0,0,1,.91-.46,2,2,0,0,1,1.08.17,3.58,3.58,0,0,1,1.09.77,3.71,3.71,0,0,1,.77,1.09A1.93,1.93,0,0,1,55,52.48a1.55,1.55,0,0,1-1.16,1.31,1.85,1.85,0,0,1-.84,0,1.3,1.3,0,0,1,0,.68,1.38,1.38,0,0,1-.35.59,1.47,1.47,0,0,1-.84.42,1.77,1.77,0,0,1-1-.16,3.35,3.35,0,0,1-1-.7,3.2,3.2,0,0,1-.7-1,1.81,1.81,0,0,1-.16-1,1.41,1.41,0,0,1,.42-.83,1.48,1.48,0,0,1,.58-.36,1.6,1.6,0,0,1,.69,0A1.72,1.72,0,0,1,50.54,50.53ZM51,54a.57.57,0,0,0,.45-.19.56.56,0,0,0,.18-.44.72.72,0,0,0-.24-.47.74.74,0,0,0-.47-.24.51.51,0,0,0-.45.18.56.56,0,0,0-.19.45.78.78,0,0,0,.25.47A.7.7,0,0,0,51,54Zm1.58-3.19a.72.72,0,0,0-.75.75,1,1,0,0,0,.32.58.93.93,0,0,0,.58.31.7.7,0,0,0,.75-.74,1,1,0,0,0-.32-.59A.93.93,0,0,0,52.61,50.82Z"/><path class="cls-29" d="M50.71,47.53a2.35,2.35,0,0,1-.09,1.38,3.6,3.6,0,0,1-.91,1.38,3.75,3.75,0,0,1-1.38.92A2.32,2.32,0,0,1,47,51.3a2.47,2.47,0,0,1-1.2-.68,2.58,2.58,0,0,1-.68-1.18,2.52,2.52,0,0,1,.09-1.38,3.75,3.75,0,0,1,.92-1.38,3.8,3.8,0,0,1,1.37-.92,2.35,2.35,0,0,1,1.38-.09,2.57,2.57,0,0,1,1.87,1.86Zm-2.38-.42a2.57,2.57,0,0,0-1.07.73,2.4,2.4,0,0,0-.73,1.08.77.77,0,0,0,.18.75.74.74,0,0,0,.76.18,2.49,2.49,0,0,0,1.07-.72,2.65,2.65,0,0,0,.73-1.08.76.76,0,0,0-.94-.94Z"/><path class="cls-29" d="M46.69,43.52a2.35,2.35,0,0,1-.09,1.38,4.17,4.17,0,0,1-2.29,2.3,2.35,2.35,0,0,1-1.38.09,2.44,2.44,0,0,1-1.19-.68,2.4,2.4,0,0,1-.68-1.19,2.32,2.32,0,0,1,.09-1.37,3.72,3.72,0,0,1,.91-1.38,3.63,3.63,0,0,1,1.38-.92,2.44,2.44,0,0,1,1.38-.1,2.49,2.49,0,0,1,1.18.68A2.38,2.38,0,0,1,46.69,43.52ZM44.3,43.1a2.63,2.63,0,0,0-1.07.73,2.45,2.45,0,0,0-.72,1.08.73.73,0,0,0,.18.75.74.74,0,0,0,.76.18,2.44,2.44,0,0,0,1.07-.73A2.49,2.49,0,0,0,45.24,44a.76.76,0,0,0-.18-.76A.78.78,0,0,0,44.3,43.1Z"/><path class="cls-29" d="M40.19,37.5a2.45,2.45,0,0,1,1.46.55l.65-.65.71.7-.63.63a5.81,5.81,0,0,1,.69,1,3.27,3.27,0,0,1,.35.95l-1.23.48a3.73,3.73,0,0,0-.35-.94,3.37,3.37,0,0,0-.61-.82c-.44-.45-.78-.56-1-.34a.4.4,0,0,0-.07.46,5.17,5.17,0,0,0,.43.79,7.81,7.81,0,0,1,.57,1,1.81,1.81,0,0,1,.16.89,1.39,1.39,0,0,1-.45.91,1.67,1.67,0,0,1-1.23.5,2.44,2.44,0,0,1-1.49-.6l-.65.64-.7-.7.63-.63a6.13,6.13,0,0,1-.53-.76,4.15,4.15,0,0,1-.32-.78l1.22-.51a3.36,3.36,0,0,0,.83,1.46,1.38,1.38,0,0,0,.6.4.43.43,0,0,0,.43-.11.37.37,0,0,0,.06-.43,5,5,0,0,0-.44-.78,7.75,7.75,0,0,1-.56-1,1.84,1.84,0,0,1-.17-.9A1.34,1.34,0,0,1,39,38,1.63,1.63,0,0,1,40.19,37.5Z"/><circle class="cls-30" cx="73.48" cy="76.25" r="7.52"/><circle class="cls-31" cx="74.48" cy="74.48" r="5.01"/><path class="cls-32" d="M78.48,74.48a4,4,0,1,1-4-4A4,4,0,0,1,78.48,74.48Z"/></g></g></g></svg>